# xmcd
#
# Track frame offsets: 
#        150
#        17680
#        34315
#        50535
#        66015
#        83852
#        98635
#        115072
#        132982
#        148677
#
# Disc length: 2191 seconds
#
# Revision: 0
# Processed by: cddbd v1.5.1PL2 Copyright (c) Steve Scherf et al.
# Submitted via: ExactAudioCopy v0.95b4
#
DISCID=84088d0a
DTITLE=ณิชา  ดารินทร์ - สงสารแฟนพี่
DYEAR=1900
DGENRE=Country
TTITLE0=สงสารแฟนพี่
TTITLE1=บวชชีหนีอาย
TTITLE2=สาวสันป่าตอง
TTITLE3=ทาแป้งคอยท่า
TTITLE4=จีบหนูมันอยู่ที่ใจ
TTITLE5=คอยวันเธอทิ้ง
TTITLE6=ครูผู้น้อย
TTITLE7=ร้องไห้หน้าโรงหนัง
TTITLE8=หลงมนต์คนกรุง
TTITLE9=ลิขสิทธิ์รัก
EXTD=
EXTT0=
EXTT1=
EXTT2=
EXTT3=
EXTT4=
EXTT5=
EXTT6=
EXTT7=
EXTT8=
EXTT9=
PLAYORDER=
